REM DIRINDEX 1\2\4,1\2\5,1\3\6,1\3\7,1\3\8
REM DIRNAME cjc092,folder01,folder02,folder03,folder04,folder05,folder06,folder07
TITLE ""
FILE "LEVEL1-008-midashigo.mp3" MP3
  TRACK 01 AUDIO
    TITLE "0:"
    INDEX 01 00:00:00
  TRACK 02 AUDIO
    TITLE "6:cjc092_0271"
    INDEX 01 00:00:01
  TRACK 03 AUDIO
    TITLE "0:"
    INDEX 01 00:01:19
  TRACK 04 AUDIO
    TITLE "7:cjc092_0272"
    INDEX 01 00:01:71
  TRACK 05 AUDIO
    TITLE "8:cjc092_0273"
    INDEX 01 00:03:29
  TRACK 06 AUDIO
    TITLE "0:"
    INDEX 01 00:06:37
  TRACK 07 AUDIO
    TITLE "7:cjc092_0274"
    INDEX 01 00:06:71
  TRACK 08 AUDIO
    TITLE "8:cjc092_0275"
    INDEX 01 00:08:26
  TRACK 09 AUDIO
    TITLE "0:"
    INDEX 01 00:11:52
  TRACK 10 AUDIO
    TITLE "7:cjc092_0276"
    INDEX 01 00:12:09
  TRACK 11 AUDIO
    TITLE "8:cjc092_0277"
    INDEX 01 00:13:33
  TRACK 12 AUDIO
    TITLE "0:"
    INDEX 01 00:15:25
  TRACK 13 AUDIO
    TITLE "7:cjc092_0278"
    INDEX 01 00:15:58
  TRACK 14 AUDIO
    TITLE "8:cjc092_0279"
    INDEX 01 00:17:08
  TRACK 15 AUDIO
    TITLE "0:"
    INDEX 01 00:18:31
  TRACK 16 AUDIO
    TITLE "7:cjc092_0280"
    INDEX 01 00:18:60
  TRACK 17 AUDIO
    TITLE "8:cjc092_0281"
    INDEX 01 00:20:20
  TRACK 18 AUDIO
    TITLE "0:"
    INDEX 01 00:23:71
  TRACK 19 AUDIO
    TITLE "7:cjc092_0282"
    INDEX 01 00:24:27
  TRACK 20 AUDIO
    TITLE "8:cjc092_0283"
    INDEX 01 00:25:35
  TRACK 21 AUDIO
    TITLE "0:"
    INDEX 01 00:27:28
  TRACK 22 AUDIO
    TITLE "7:cjc092_0284"
    INDEX 01 00:27:59
  TRACK 23 AUDIO
    TITLE "8:cjc092_0285"
    INDEX 01 00:29:29
  TRACK 24 AUDIO
    TITLE "0:"
    INDEX 01 00:31:29
  TRACK 25 AUDIO
    TITLE "7:cjc092_0286"
    INDEX 01 00:31:59
  TRACK 26 AUDIO
    TITLE "8:cjc092_0287"
    INDEX 01 00:33:26
  TRACK 27 AUDIO
    TITLE "0:"
    INDEX 01 00:35:02
  TRACK 28 AUDIO
    TITLE "7:cjc092_0288"
    INDEX 01 00:35:33
  TRACK 29 AUDIO
    TITLE "8:cjc092_0289"
    INDEX 01 00:36:68
  TRACK 30 AUDIO
    TITLE "0:"
    INDEX 01 00:39:07
  TRACK 31 AUDIO
    TITLE "7:cjc092_0290"
    INDEX 01 00:39:33
  TRACK 32 AUDIO
    TITLE "8:cjc092_0291"
    INDEX 01 00:40:54
  TRACK 33 AUDIO
    TITLE "0:"
    INDEX 01 00:42:70
  TRACK 34 AUDIO
    TITLE "7:cjc092_0292"
    INDEX 01 00:43:27
  TRACK 35 AUDIO
    TITLE "8:cjc092_0293"
    INDEX 01 00:44:50
  TRACK 36 AUDIO
    TITLE "0:"
    INDEX 01 00:46:29
  TRACK 37 AUDIO
    TITLE "7:cjc092_0294"
    INDEX 01 00:46:56
  TRACK 38 AUDIO
    TITLE "8:cjc092_0295"
    INDEX 01 00:48:06
  TRACK 39 AUDIO
    TITLE "0:"
    INDEX 01 00:49:20
  TRACK 40 AUDIO
    TITLE "7:cjc092_0296"
    INDEX 01 00:49:51
  TRACK 41 AUDIO
    TITLE "8:cjc092_0297"
    INDEX 01 00:51:01
  TRACK 42 AUDIO
    TITLE "0:"
    INDEX 01 00:54:07
  TRACK 43 AUDIO
    TITLE "7:cjc092_0298"
    INDEX 01 00:54:38
  TRACK 44 AUDIO
    TITLE "8:cjc092_0299"
    INDEX 01 00:55:61
  TRACK 45 AUDIO
    TITLE "0:"
    INDEX 01 00:59:10
  TRACK 46 AUDIO
    TITLE "7:cjc092_0300"
    INDEX 01 00:59:43
  TRACK 47 AUDIO
    TITLE "8:cjc092_0301"
    INDEX 01 01:00:59
  TRACK 48 AUDIO
    TITLE "0:"
    INDEX 01 01:06:02
  TRACK 49 AUDIO
    TITLE "7:cjc092_0302"
    INDEX 01 01:06:30
  TRACK 50 AUDIO
    TITLE "8:cjc092_0303"
    INDEX 01 01:08:03
  TRACK 51 AUDIO
    TITLE "0:"
    INDEX 01 01:09:16
  TRACK 52 AUDIO
    TITLE "7:cjc092_0304"
    INDEX 01 01:09:50
  TRACK 53 AUDIO
    TITLE "8:cjc092_0305"
    INDEX 01 01:11:13
  TRACK 54 AUDIO
    TITLE "0:"
    INDEX 01 01:13:28
  TRACK 55 AUDIO
    TITLE "7:cjc092_0306"
    INDEX 01 01:13:63
  TRACK 56 AUDIO
    TITLE "8:cjc092_0307"
    INDEX 01 01:15:19
  TRACK 57 AUDIO
    TITLE "0:"
    INDEX 01 01:17:43
  TRACK 58 AUDIO
    TITLE "7:cjc092_0308"
    INDEX 01 01:18:04
  TRACK 59 AUDIO
    TITLE "8:cjc092_0309"
    INDEX 01 01:19:27
  TRACK 60 AUDIO
    TITLE "0:"
    INDEX 01 01:20:71
  TRACK 61 AUDIO
    TITLE "7:cjc092_0310"
    INDEX 01 01:21:27
  TRACK 62 AUDIO
    TITLE "8:cjc092_0311"
    INDEX 01 01:22:56
  TRACK 63 AUDIO
    TITLE "0:"
    INDEX 01 01:24:20
